<svg width="32" height="20" viewBox="0 0 32 20" fill="none" xmlns="http://www.w3.org/2000/svg">
<g filter="url(#filter0_d_403_1226)">
<path d="M8.15625 13.8359H20.6328C21.2995 13.8359 21.9089 13.7812 22.4609 13.6719C23.013 13.5625 23.487 13.3099 23.8828 12.9141C24.2839 12.513 24.5365 12.0391 24.6406 11.4922C24.7448 10.9453 24.7969 10.3359 24.7969 9.66406V7.02344C24.7969 6.35677 24.7448 5.75 24.6406 5.20312C24.5365 4.65625 24.2839 4.18229 23.8828 3.78125C23.4818 3.38542 23.0052 3.13281 22.4531 3.02344C21.9062 2.91406 21.2995 2.85938 20.6328 2.85938H8.14062C7.48438 2.85938 6.88021 2.91406 6.32812 3.02344C5.78125 3.13281 5.30729 3.38802 4.90625 3.78906C4.51042 4.1849 4.25781 4.65625 4.14844 5.20312C4.04427 5.75 3.99219 6.35156 3.99219 7.00781V9.66406C3.99219 10.3359 4.04427 10.9453 4.14844 11.4922C4.2526 12.0391 4.50521 12.513 4.90625 12.9141C5.30729 13.3099 5.78125 13.5625 6.32812 13.6719C6.88021 13.7812 7.48958 13.8359 8.15625 13.8359ZM7.94531 12.5781C7.54427 12.5781 7.14844 12.5391 6.75781 12.4609C6.3724 12.3828 6.0599 12.2266 5.82031 11.9922C5.58594 11.7578 5.43229 11.4479 5.35938 11.0625C5.28646 10.6771 5.25 10.2839 5.25 9.88281V6.83594C5.25 6.42448 5.28646 6.02604 5.35938 5.64062C5.43229 5.25 5.58594 4.9349 5.82031 4.69531C6.05469 4.46094 6.36719 4.30729 6.75781 4.23438C7.15365 4.15625 7.55729 4.11719 7.96875 4.11719H20.8438C21.2448 4.11719 21.638 4.15625 22.0234 4.23438C22.4141 4.30729 22.7292 4.46354 22.9688 4.70312C23.2031 4.9375 23.3568 5.2474 23.4297 5.63281C23.5026 6.01823 23.5391 6.41146 23.5391 6.8125V9.88281C23.5391 10.2839 23.5026 10.6771 23.4297 11.0625C23.3568 11.4479 23.2031 11.7578 22.9688 11.9922C22.7292 12.2318 22.4141 12.3906 22.0234 12.4688C21.638 12.5417 21.2448 12.5781 20.8438 12.5781H7.94531ZM25.8594 10.3672C26.0677 10.3516 26.2839 10.2604 26.5078 10.0938C26.7318 9.92188 26.9219 9.6875 27.0781 9.39062C27.2344 9.09375 27.3125 8.74479 27.3125 8.34375C27.3125 7.94792 27.2344 7.60156 27.0781 7.30469C26.9219 7.00781 26.7318 6.77344 26.5078 6.60156C26.2839 6.42969 26.0677 6.33854 25.8594 6.32812V10.3672ZM7.63281 11.5859H21.1641C21.4349 11.5859 21.6536 11.5651 21.8203 11.5234C21.987 11.4818 22.1302 11.4036 22.25 11.2891C22.3646 11.1745 22.4427 11.0339 22.4844 10.8672C22.5312 10.6953 22.5547 10.474 22.5547 10.2031V6.49219C22.5547 6.22135 22.5312 6.0026 22.4844 5.83594C22.4427 5.66406 22.3646 5.52083 22.25 5.40625C22.1302 5.28646 21.987 5.20833 21.8203 5.17188C21.6536 5.13021 21.4349 5.10938 21.1641 5.10938H7.63281C7.35677 5.10938 7.13542 5.13021 6.96875 5.17188C6.80208 5.20833 6.66146 5.28646 6.54688 5.40625C6.43229 5.52083 6.35156 5.66406 6.30469 5.83594C6.26302 6.0026 6.24219 6.22135 6.24219 6.49219V10.2031C6.24219 10.474 6.26302 10.6953 6.30469 10.8672C6.35156 11.0339 6.43229 11.1745 6.54688 11.2891C6.66667 11.4036 6.80729 11.4818 6.96875 11.5234C7.13542 11.5651 7.35677 11.5859 7.63281 11.5859Z" fill="white" fill-opacity="0.9"/>
</g>
<defs>
<filter id="filter0_d_403_1226" x="-0.0078125" y="0.859375" width="31.3203" height="18.9766" filterUnits="userSpaceOnUse" color-interpolation-filters="sRGB">
<feFlood flood-opacity="0" result="BackgroundImageFix"/>
<feColorMatrix in="SourceAlpha" type="matrix" values="0 0 0 0 0 0 0 0 0 0 0 0 0 0 0 0 0 0 127 0" result="hardAlpha"/>
<feOffset dy="2"/>
<feGaussianBlur stdDeviation="2"/>
<feColorMatrix type="matrix" values="0 0 0 0 0 0 0 0 0 0 0 0 0 0 0 0 0 0 0.15 0"/>
<feBlend mode="normal" in2="BackgroundImageFix" result="effect1_dropShadow_403_1226"/>
<feBlend mode="normal" in="SourceGraphic" in2="effect1_dropShadow_403_1226" result="shape"/>
</filter>
</defs>
</svg>
